<svg xmlns="http://www.w3.org/2000/svg" data-name="Layer 1" viewBox="0 0 100 125" x="0px" y="0px"><title>Artboard 10</title><path fill='#ffffff' d="M65.67,36.75l6-11.35a3,3,0,1,0-5.31-2.8l-4.25,8-2.38-4.06a11.29,11.29,0,0,0-19.4-.06L20.7,60.19A12.51,12.51,0,0,0,31.51,79h37A12.53,12.53,0,0,0,81,66.49v-.12a12.52,12.52,0,0,0-1.71-6.31ZM62.37,43l8.19,14H55ZM45.47,29.61a5.29,5.29,0,0,1,9.07,0L58.8,36.9,48.19,57H29.5ZM75,66.49A6.52,6.52,0,0,1,68.49,73h-37a6.49,6.49,0,0,1-5.8-9.45L26,63H74.08l.27.57a6.45,6.45,0,0,1,.64,2.8Z"/></svg>